<?xml version="1.0" encoding="UTF-8"?>
<!DOCTYPE svg PUBLIC "-//W3C//DTD SVG 1.1//EN" "http://www.w3.org/Graphics/SVG/1.1/DTD/svg11.dtd">
<!-- Creator: CorelDRAW X5 -->
<svg xmlns="http://www.w3.org/2000/svg" xml:space="preserve" width="190.491mm" height="130mm" style="shape-rendering:geometricPrecision; text-rendering:geometricPrecision; image-rendering:optimizeQuality; fill-rule:evenodd; clip-rule:evenodd"
viewBox="0 0 19049 13000"
 xmlns:xlink="http://www.w3.org/1999/xlink">
 <defs>
  <style type="text/css">
   <![CDATA[
    .fil1 {fill:#1C4596}
    .fil0 {fill:#3C893F}
    .fil2 {fill:#1C4596;fill-rule:nonzero}
    .fil3 {fill:#3C893F;fill-rule:nonzero}
   ]]>
  </style>
 </defs>
 <g id="Layer_x0020_1">
  <metadata id="CorelCorpID_0Corel-Layer"/>
  <path class="fil0" d="M8834 5308l438 -393 -485 0 0 -541 229 0 -428 -388 -410 382 210 0 0 650c1,201 35,292 210,294l237 -3z"/>
  <path class="fil0" d="M10157 3989l-438 393 485 0 0 541 -229 0 428 388 410 -382 -210 0 0 -650c-1,-201 -35,-292 -210,-294l-237 3z"/>
  <path class="fil0" d="M10155 5310l-393 -438 0 485 -541 0 0 -229 -388 428 382 410 0 -210 650 0c201,-1 292,-35 294,-210l-3 -237z"/>
  <path class="fil0" d="M8836 3987l393 438 0 -485 541 0 0 229 388 -428 -382 -410 0 210 -650 0c-201,1 -292,35 -294,210l3 237z"/>
  <path class="fil1" d="M7088 3442c-56,88 -102,89 -144,465 -42,376 197,772 197,772 0,0 -25,-182 90,-331 114,-150 342,-372 449,-522 107,-150 135,-341 135,-341l0 0c-99,45 -208,69 -323,69 -148,0 -286,-41 -403,-112z"/>
  <path class="fil1" d="M8044 2781c0,306 -248,554 -554,554 -306,0 -554,-248 -554,-554 0,-306 248,-554 554,-554 306,0 554,248 554,554z"/>
  <path class="fil1" d="M8121 2314c0,0 426,-307 853,-367 428,-60 1041,43 1041,43 0,0 -296,21 -480,129 -184,108 -331,273 -549,470 -218,197 -372,325 -526,398 -99,47 -185,58 -232,60 30,-83 46,-172 46,-266 0,-175 -57,-336 -154,-467l0 0z"/>
  <path class="fil0" d="M8314 7082c88,56 89,102 465,144 376,42 772,-197 772,-197 0,0 -182,25 -331,-90 -150,-114 -372,-342 -522,-449 -150,-107 -341,-135 -341,-135l0 0c45,99 69,208 69,323 0,148 -41,286 -112,403z"/>
  <path class="fil0" d="M7652 6126c306,0 554,248 554,554 0,306 -248,554 -554,554 -306,0 -554,-248 -554,-554 0,-306 248,-554 554,-554z"/>
  <path class="fil0" d="M7186 6050c0,0 -307,-426 -367,-853 -60,-428 43,-1041 43,-1041 0,0 21,296 129,480 108,184 273,331 470,549 197,218 325,372 398,526 47,99 58,185 60,232 -83,-30 -172,-46 -266,-46 -175,0 -336,57 -467,154l0 0z"/>
  <path class="fil1" d="M11903 5855c56,-88 102,-89 144,-465 42,-376 -197,-772 -197,-772 0,0 25,182 -90,331 -114,150 -342,372 -449,522 -107,150 -135,341 -135,341l0 0c99,-45 208,-69 323,-69 148,0 286,41 403,112z"/>
  <path class="fil1" d="M10947 6517c0,-306 248,-554 554,-554 306,0 554,248 554,554 0,306 -248,554 -554,554 -306,0 -554,-248 -554,-554z"/>
  <path class="fil1" d="M10871 6983c0,0 -426,307 -853,367 -428,60 -1041,-43 -1041,-43 0,0 296,-21 480,-129 184,-108 331,-273 549,-470 218,-197 372,-325 526,-398 99,-47 185,-58 232,-60 -30,83 -46,172 -46,266 0,175 57,336 154,467l0 0z"/>
  <path class="fil0" d="M10678 2215c-88,-56 -89,-102 -465,-144 -376,-42 -772,197 -772,197 0,0 182,-25 331,90 150,114 372,342 522,449 150,107 341,135 341,135l0 0c-45,-99 -69,-208 -69,-323 0,-148 41,-286 112,-403z"/>
  <path class="fil0" d="M11339 3171c-306,0 -554,-248 -554,-554 0,-306 248,-554 554,-554 306,0 554,248 554,554 0,306 -248,554 -554,554z"/>
  <path class="fil0" d="M11805 3247c0,0 307,426 367,853 60,428 -43,1041 -43,1041 0,0 -21,-296 -129,-480 -108,-184 -273,-331 -470,-549 -197,-218 -325,-372 -398,-526 -47,-99 -58,-185 -60,-232 83,30 172,46 266,46 175,0 336,-57 467,-154l0 0z"/>
  <path class="fil2" d="M2872 9839l0 -1640 535 0c71,0 132,9 181,27 49,18 89,43 120,76 31,33 53,72 66,118 14,46 20,96 20,150 0,69 -5,127 -16,177 -11,49 -27,90 -48,123 -21,33 -48,59 -79,77 -31,19 -67,32 -107,41 91,4 164,34 217,89 54,55 80,137 80,247 0,180 -35,311 -106,393 -71,82 -184,123 -339,123l-525 0zm458 -141c83,0 144,-25 183,-75 39,-50 59,-131 59,-242 0,-59 -3,-108 -10,-148 -6,-40 -17,-72 -32,-97 -15,-25 -35,-43 -61,-54 -26,-11 -57,-16 -94,-16l-238 0 0 632 193 0zm26 -760c67,0 116,-25 146,-74 30,-49 45,-123 45,-222 0,-110 -14,-187 -42,-230 -28,-44 -76,-65 -145,-65l-223 0 0 591 218 0zm1062 120c43,0 79,-6 108,-18 29,-12 54,-32 73,-61 19,-29 33,-66 42,-113 9,-47 13,-106 13,-176 0,-69 -4,-125 -11,-169 -7,-44 -18,-79 -33,-105 -15,-26 -35,-44 -59,-54 -24,-10 -54,-15 -90,-15l-210 0 0 711 167 0zm-433 782l0 -1640 514 0c77,0 143,9 197,26 54,17 98,43 131,77 33,34 57,77 72,130 15,52 22,113 22,183 0,111 -8,204 -24,279 -16,75 -42,135 -79,181 -37,46 -86,79 -147,98 -61,20 -136,30 -226,30l-195 0 0 487c1,118 -107,146 -266,149zm1325 -1640c90,-8 257,45 263,170l0 1091c0,273 -148,409 -445,409 -146,0 -249,-31 -312,-94 -28,-28 -49,-60 -64,-98 -27,-72 80,-127 136,-46 7,15 21,26 31,38 32,39 87,59 164,59 81,0 140,-20 175,-59 35,-39 52,-104 52,-194l0 -1276zm530 1363c18,32 42,60 72,82 49,37 109,56 182,56 34,0 67,-6 98,-18 31,-12 59,-29 82,-51 24,-22 42,-49 56,-81 14,-32 20,-68 20,-108 0,-36 -5,-67 -15,-94 -10,-27 -24,-51 -41,-73 -17,-21 -37,-41 -61,-59 -24,-18 -49,-36 -76,-55 -61,-40 -118,-79 -170,-117 -52,-38 -97,-78 -136,-121 -39,-43 -69,-90 -91,-142 -22,-52 -33,-114 -33,-185 0,-61 10,-118 29,-169 19,-51 48,-96 86,-134 38,-38 84,-67 138,-89 54,-21 116,-32 186,-32 91,0 170,21 236,63 64,41 108,98 131,171 24,48 -98,107 -135,34 -15,-25 -34,-46 -57,-64 -39,-29 -86,-44 -140,-44 -76,0 -135,21 -177,62 -42,41 -63,100 -63,176 0,63 16,115 48,156 32,41 72,79 120,112 48,34 100,66 156,96 56,31 109,66 156,107 48,41 88,90 120,147 32,57 48,128 48,214 0,67 -11,129 -34,186 -23,57 -56,106 -99,148 -43,41 -95,74 -157,97 -62,24 -132,35 -211,35 -101,0 -190,-25 -267,-75 -61,-40 -108,-93 -143,-159 -44,-80 100,-149 141,-73z"/>
  <path class="fil3" d="M15867 9731l0 -857c0,-67 -15,-113 -44,-137 -29,-24 -75,-36 -138,-36 -51,0 -99,12 -143,36 -44,24 -76,51 -96,81l0 910c0,84 -158,132 -253,139l0 -1420c134,4 250,96 253,145l0 87c33,-43 81,-81 146,-113 64,-33 139,-49 225,-49 103,0 179,27 229,82 50,55 75,140 75,256l0 1013c-135,8 -249,-40 -253,-137z"/>
  <path class="fil3" d="M13981 9825c-18,10 -37,17 -56,23 -42,14 -97,20 -166,20 -108,0 -193,-33 -255,-100 -61,-66 -92,-159 -92,-277l0 -781 0 -61 -101 0 0 -131 101 0 0 -261c199,-1 247,72 251,118l0 141 257 0 0 133 -257 0 0 58 0 783c0,73 15,130 44,170 29,41 76,61 140,61 42,0 74,-5 98,-14 87,-22 113,87 36,116z"/>
  <path class="fil3" d="M12965 9746l0 -65c-29,59 -71,105 -128,138 -57,34 -124,50 -201,50 -117,0 -204,-32 -262,-97 -58,-65 -87,-155 -87,-271 0,-116 23,-204 69,-266 46,-61 116,-108 212,-141 31,-11 65,-20 100,-27 35,-6 69,-13 103,-19 34,-6 66,-14 96,-24 31,-9 57,-22 78,-37l0 -135c0,-70 -14,-123 -43,-158 -29,-36 -83,-54 -163,-54 -60,0 -112,13 -155,40 -28,17 -52,40 -73,70 -78,74 -176,-34 -124,-92 37,-52 82,-91 137,-117 72,-35 150,-52 234,-52 60,0 117,5 170,14 54,9 100,27 139,54 39,26 70,64 93,111 23,48 34,110 34,187l0 738 0 48 0 2 0 224c-134,5 -227,-19 -229,-126l0 7zm-19 -641c-29,16 -62,28 -101,37 -39,9 -76,20 -111,31 -71,23 -123,58 -154,105 -31,47 -47,108 -47,184 0,86 15,148 46,187 31,39 79,59 145,59 50,0 94,-13 133,-39 39,-26 69,-61 90,-107l0 -458z"/>
  <path class="fil3" d="M11905 9732l0 -857c0,-67 -15,-113 -44,-137 -29,-24 -75,-36 -138,-36 -51,0 -99,12 -143,36 -44,24 -76,51 -96,81l0 918c-3,83 -126,130 -253,131l-1 -1668c99,-8 247,58 254,137l0 343c33,-43 81,-81 146,-113 64,-33 139,-49 225,-49 103,0 179,27 229,82 50,55 75,140 75,256l0 1013c-95,4 -253,-27 -253,-137z"/>
  <path class="fil3" d="M9326 9637c10,10 21,18 32,27 47,34 103,51 169,51 69,0 120,-18 153,-54 34,-36 50,-81 50,-137 0,-39 -6,-71 -17,-97 -11,-26 -26,-49 -44,-67 -18,-19 -39,-34 -62,-46 -24,-12 -47,-23 -72,-33 -54,-21 -104,-45 -149,-70 -45,-25 -84,-53 -117,-85 -33,-31 -59,-67 -77,-108 -19,-41 -28,-88 -28,-142 0,-64 10,-121 31,-169 21,-49 50,-89 87,-121 37,-32 81,-56 132,-73 51,-16 106,-25 166,-25 73,0 141,13 204,40 45,19 82,49 110,91 51,74 -58,154 -133,78 -10,-9 -21,-18 -33,-25 -38,-22 -81,-33 -130,-33 -29,0 -56,4 -82,11 -26,7 -50,18 -70,33 -20,15 -36,34 -47,57 -11,23 -17,51 -17,84 0,54 15,96 45,126 30,30 67,55 112,75 45,20 94,39 146,57 52,18 101,42 146,72 45,30 82,69 112,118 30,49 45,114 45,197 0,63 -11,119 -33,169 -22,50 -52,92 -91,126 -39,34 -85,61 -138,79 -54,19 -111,28 -172,28 -103,0 -191,-21 -263,-62 -37,-21 -69,-48 -96,-80 -78,-86 5,-190 130,-90z"/>
  <path class="fil3" d="M8784 9039c-12,-162 -19,-430 -235,-430 -216,0 -242,280 -244,428l479 3zm154 607c-11,31 -26,59 -45,86 -19,27 -43,51 -74,71 -30,20 -68,36 -113,48 -45,12 -101,17 -166,17 -173,0 -296,-55 -384,-150 -171,-183 -191,-845 -19,-1067 90,-116 203,-192 352,-192 443,0 482,331 503,699l-705 0c-9,264 -37,559 289,561 71,1 125,-14 161,-42 36,-28 53,-53 74,-78 65,-72 152,-8 127,45z"/>
  <path class="fil3" d="M7661 9724l-233 -736 -165 223 0 529c1,95 -180,128 -266,128l0 -1640c79,-4 264,27 266,163l0 586 535 -749c57,-64 191,-22 172,16l-361 502 381 1122c-91,1 -290,11 -330,-144z"/>
  <path class="fil3" d="M10904 9039c-12,-162 -19,-430 -235,-430 -216,0 -242,280 -244,428l479 3zm154 607c-11,31 -26,59 -45,86 -19,27 -43,51 -74,71 -30,20 -68,36 -113,48 -45,12 -101,17 -166,17 -173,0 -296,-55 -384,-150 -171,-183 -191,-845 -19,-1067 90,-116 203,-192 352,-192 443,0 482,331 503,699l-705 0c-9,264 -37,559 289,561 71,1 125,-14 161,-42 36,-28 53,-53 74,-78 65,-72 152,-8 127,45z"/>
  <path class="fil3" d="M14755 9746l0 -65c-29,59 -71,105 -128,138 -57,34 -124,50 -201,50 -117,0 -204,-32 -262,-97 -58,-65 -87,-155 -87,-271 0,-116 23,-204 69,-266 46,-61 116,-108 212,-141 31,-11 65,-20 100,-27 35,-6 69,-13 103,-19 34,-6 66,-14 96,-24 31,-9 57,-22 78,-37l0 -135c0,-70 -14,-123 -43,-158 -29,-36 -83,-54 -163,-54 -60,0 -112,13 -155,40 -28,17 -52,40 -73,70 -78,74 -176,-34 -124,-92 37,-52 82,-91 137,-117 72,-35 150,-52 234,-52 60,0 117,5 170,14 54,9 100,27 139,54 39,26 70,64 93,111 23,48 34,110 34,187l0 738 0 48 0 2 0 224c-134,5 -227,-19 -229,-126l0 7zm-19 -641c-29,16 -62,28 -101,37 -39,9 -76,20 -111,31 -71,23 -123,58 -154,105 -31,47 -47,108 -47,184 0,86 15,148 46,187 31,39 79,59 145,59 50,0 94,-13 133,-39 39,-26 69,-61 90,-107l0 -458z"/>
  <path class="fil2" d="M2825 10905l0 -571 214 0c44,0 79,6 105,17 26,12 47,29 62,53 15,24 22,49 22,75 0,24 -7,47 -20,69 -13,22 -33,39 -60,52 35,10 61,27 80,52 19,24 28,53 28,86 0,27 -6,52 -17,75 -11,23 -25,41 -42,53 -17,12 -37,22 -62,28 -25,6 -56,10 -92,10l-218 0zm76 -331l123 0c33,0 58,-2 72,-7 19,-6 34,-15 43,-29 10,-13 15,-30 15,-50 0,-19 -5,-36 -14,-50 -9,-14 -22,-24 -39,-30 -17,-5 -46,-8 -87,-8l-114 0 0 173zm0 264l142 0c24,0 42,-1 52,-3 17,-3 32,-8 44,-16 12,-7 21,-18 29,-32 8,-14 11,-30 11,-48 0,-21 -5,-40 -16,-56 -11,-16 -26,-27 -45,-33 -19,-6 -47,-10 -83,-10l-132 0 0 197zm720 15c-26,22 -51,38 -75,47 -24,9 -50,14 -77,14 -45,0 -80,-11 -105,-33 -24,-22 -37,-50 -37,-85 0,-20 5,-39 14,-55 9,-17 21,-30 36,-40 15,-10 32,-18 50,-23 14,-4 35,-7 62,-10 57,-7 98,-15 125,-24 0,-10 0,-16 0,-18 0,-28 -7,-48 -20,-60 -18,-16 -45,-24 -80,-24 -33,0 -58,6 -73,17 -16,12 -27,32 -35,61l-69 -10c6,-29 16,-53 31,-71 14,-18 35,-32 62,-42 27,-10 58,-15 94,-15 35,0 64,4 86,12 22,8 38,19 49,31 10,13 18,29 22,48 2,12 3,33 3,64l0 93c0,65 1,106 4,123 3,17 9,34 17,50l-73 0c-7,-15 -12,-32 -14,-52zm-6 -155c-26,10 -64,19 -115,26 -29,4 -49,9 -61,14 -12,5 -21,13 -28,23 -7,10 -10,21 -10,33 0,18 7,34 21,46 14,12 35,19 62,19 27,0 51,-6 72,-18 21,-12 37,-28 46,-48 8,-16 11,-39 11,-70l0 -26zm446 207l0 -52c-26,41 -65,61 -116,61 -33,0 -63,-9 -91,-27 -28,-18 -49,-43 -64,-76 -15,-33 -23,-70 -23,-112 0,-41 7,-79 21,-112 14,-33 34,-59 62,-77 27,-18 58,-27 92,-27 25,0 47,5 67,16 19,10 35,24 47,41l0 -205 70 0 0 571 -65 0zm-222 -206c0,53 11,92 34,118 22,26 49,39 79,39 31,0 57,-12 78,-37 21,-25 32,-63 32,-114 0,-56 -11,-98 -33,-124 -22,-26 -49,-40 -81,-40 -31,0 -57,13 -78,38 -21,25 -31,65 -31,120zm668 154c-26,22 -51,38 -75,47 -24,9 -50,14 -77,14 -45,0 -80,-11 -105,-33 -24,-22 -37,-50 -37,-85 0,-20 5,-39 14,-55 9,-17 21,-30 36,-40 15,-10 32,-18 50,-23 14,-4 35,-7 62,-10 57,-7 98,-15 125,-24 0,-10 0,-16 0,-18 0,-28 -7,-48 -20,-60 -18,-16 -45,-24 -80,-24 -33,0 -58,6 -73,17 -16,12 -27,32 -35,61l-69 -10c6,-29 16,-53 31,-71 14,-18 35,-32 62,-42 27,-10 58,-15 94,-15 35,0 64,4 86,12 22,8 38,19 49,31 10,13 18,29 22,48 2,12 3,33 3,64l0 93c0,65 1,106 4,123 3,17 9,34 17,50l-73 0c-7,-15 -12,-32 -14,-52zm-6 -155c-26,10 -64,19 -115,26 -29,4 -49,9 -61,14 -12,5 -21,13 -28,23 -7,10 -10,21 -10,33 0,18 7,34 21,46 14,12 35,19 62,19 27,0 51,-6 72,-18 21,-12 37,-28 46,-48 8,-16 11,-39 11,-70l0 -26zm179 207l0 -414 63 0 0 59c30,-45 74,-67 131,-67 25,0 48,5 69,13 21,9 37,21 47,35 10,14 18,32 22,52 3,13 4,36 4,68l0 254 -70 0 0 -251c0,-29 -3,-50 -8,-64 -5,-14 -15,-25 -29,-34 -14,-8 -30,-13 -49,-13 -30,0 -55,9 -77,28 -22,19 -32,55 -32,108l0 226 -70 0zm673 0l0 -571 215 0c38,0 67,2 87,5 28,5 52,14 71,27 19,13 34,31 46,55 12,24 17,49 17,78 0,48 -15,89 -46,123 -31,34 -87,50 -167,50l-146 0 0 233 -76 0zm76 -300l147 0c49,0 83,-9 104,-27 20,-18 31,-44 31,-77 0,-24 -6,-44 -18,-61 -12,-17 -28,-28 -48,-34 -13,-3 -36,-5 -70,-5l-146 0 0 204zm729 166l73 10c-11,42 -32,75 -63,98 -31,23 -70,35 -118,35 -60,0 -108,-19 -143,-56 -35,-37 -53,-89 -53,-156 0,-69 18,-123 54,-162 36,-38 82,-58 139,-58 55,0 100,19 135,56 35,38 52,90 52,159 0,4 0,10 0,19l-308 0c3,45 15,80 39,104 23,24 52,36 86,36 26,0 48,-7 66,-20 18,-14 33,-35 43,-65zm-230 -112l230 0c-3,-35 -12,-61 -26,-78 -22,-27 -51,-41 -87,-41 -32,0 -59,11 -81,32 -22,22 -34,50 -36,86zm391 246l0 -414 63 0 0 59c30,-45 74,-67 131,-67 25,0 48,5 69,13 21,9 37,21 47,35 10,14 18,32 22,52 3,13 4,36 4,68l0 254 -70 0 0 -251c0,-29 -3,-50 -8,-64 -5,-14 -15,-25 -29,-34 -14,-8 -30,-13 -49,-13 -30,0 -55,9 -77,28 -22,19 -32,55 -32,108l0 226 -70 0zm440 159l-8 -65c15,4 29,6 40,6 16,0 28,-3 37,-8 9,-5 17,-12 23,-22 4,-7 12,-24 21,-52 1,-4 3,-10 6,-17l-157 -415 75 0 86 239c11,30 21,62 30,96 8,-31 18,-63 29,-93l88 -241 70 0 -156 421c-17,45 -30,76 -39,94 -12,23 -27,40 -43,51 -16,11 -35,16 -58,16 -14,0 -29,-3 -45,-8zm684 -293l73 10c-11,42 -32,75 -63,98 -31,23 -70,35 -118,35 -60,0 -108,-19 -143,-56 -35,-37 -53,-89 -53,-156 0,-69 18,-123 54,-162 36,-38 82,-58 139,-58 55,0 100,19 135,56 35,38 52,90 52,159 0,4 0,10 0,19l-308 0c3,45 15,80 39,104 23,24 52,36 86,36 26,0 48,-7 66,-20 18,-14 33,-35 43,-65zm-230 -112l230 0c-3,-35 -12,-61 -26,-78 -22,-27 -51,-41 -87,-41 -32,0 -59,11 -81,32 -22,22 -34,50 -36,86zm389 246l0 -571 70 0 0 571 -70 0zm461 -134l73 10c-11,42 -32,75 -63,98 -31,23 -70,35 -118,35 -60,0 -108,-19 -143,-56 -35,-37 -53,-89 -53,-156 0,-69 18,-123 54,-162 36,-38 82,-58 139,-58 55,0 100,19 135,56 35,38 52,90 52,159 0,4 0,10 0,19l-308 0c3,45 15,80 39,104 23,24 52,36 86,36 26,0 48,-7 66,-20 18,-14 33,-35 43,-65zm-230 -112l230 0c-3,-35 -12,-61 -26,-78 -22,-27 -51,-41 -87,-41 -32,0 -59,11 -81,32 -22,22 -34,50 -36,86zm391 246l0 -414 63 0 0 59c30,-45 74,-67 131,-67 25,0 48,5 69,13 21,9 37,21 47,35 10,14 18,32 22,52 3,13 4,36 4,68l0 254 -70 0 0 -251c0,-29 -3,-50 -8,-64 -5,-14 -15,-25 -29,-34 -14,-8 -30,-13 -49,-13 -30,0 -55,9 -77,28 -22,19 -32,55 -32,108l0 226 -70 0zm430 34l68 10c3,21 11,36 24,46 17,13 41,19 71,19 32,0 58,-7 75,-19 18,-13 30,-31 36,-54 4,-14 5,-44 5,-90 -31,36 -69,54 -114,54 -57,0 -101,-20 -132,-62 -31,-41 -47,-90 -47,-147 0,-39 7,-76 21,-109 14,-33 35,-59 62,-77 27,-18 59,-27 96,-27 49,0 89,20 121,60l0 -51 65 0 0 357c0,64 -7,110 -20,137 -13,27 -34,48 -62,64 -28,16 -63,23 -105,23 -49,0 -89,-11 -119,-33 -30,-22 -45,-55 -44,-100zm57 -248c0,54 11,94 32,118 22,25 49,37 81,37 32,0 59,-12 81,-37 22,-25 33,-63 33,-116 0,-50 -11,-89 -34,-114 -22,-26 -50,-38 -81,-38 -31,0 -58,13 -80,38 -22,25 -33,63 -33,113zm386 248l68 10c3,21 11,36 24,46 17,13 41,19 71,19 32,0 58,-7 75,-19 18,-13 30,-31 36,-54 4,-14 5,-44 5,-90 -31,36 -69,54 -114,54 -57,0 -101,-20 -132,-62 -31,-41 -47,-90 -47,-147 0,-39 7,-76 21,-109 14,-33 35,-59 62,-77 27,-18 59,-27 96,-27 49,0 89,20 121,60l0 -51 65 0 0 357c0,64 -7,110 -20,137 -13,27 -34,48 -62,64 -28,16 -63,23 -105,23 -49,0 -89,-11 -119,-33 -30,-22 -45,-55 -44,-100zm57 -248c0,54 11,94 32,118 22,25 49,37 81,37 32,0 59,-12 81,-37 22,-25 33,-63 33,-116 0,-50 -11,-89 -34,-114 -22,-26 -50,-38 -81,-38 -31,0 -58,13 -80,38 -22,25 -33,63 -33,113zm669 162c-26,22 -51,38 -75,47 -24,9 -50,14 -77,14 -45,0 -80,-11 -105,-33 -24,-22 -37,-50 -37,-85 0,-20 5,-39 14,-55 9,-17 21,-30 36,-40 15,-10 32,-18 50,-23 14,-4 35,-7 62,-10 57,-7 98,-15 125,-24 0,-10 0,-16 0,-18 0,-28 -7,-48 -20,-60 -18,-16 -45,-24 -80,-24 -33,0 -58,6 -73,17 -16,12 -27,32 -35,61l-69 -10c6,-29 16,-53 31,-71 14,-18 35,-32 62,-42 27,-10 58,-15 94,-15 35,0 64,4 86,12 22,8 38,19 49,31 10,13 18,29 22,48 2,12 3,33 3,64l0 93c0,65 1,106 4,123 3,17 9,34 17,50l-73 0c-7,-15 -12,-32 -14,-52zm-6 -155c-26,10 -64,19 -115,26 -29,4 -49,9 -61,14 -12,5 -21,13 -28,23 -7,10 -10,21 -10,33 0,18 7,34 21,46 14,12 35,19 62,19 27,0 51,-6 72,-18 21,-12 37,-28 46,-48 8,-16 11,-39 11,-70l0 -26zm178 207l0 -414 63 0 0 63c16,-29 31,-49 45,-58 14,-9 29,-14 45,-14 24,0 48,7 72,22l-25 65c-17,-10 -34,-14 -51,-14 -15,0 -29,5 -41,14 -12,9 -21,22 -26,38 -8,25 -12,52 -12,82l0 216 -70 0zm536 -52c-26,22 -51,38 -75,47 -24,9 -50,14 -77,14 -45,0 -80,-11 -105,-33 -24,-22 -37,-50 -37,-85 0,-20 5,-39 14,-55 9,-17 21,-30 36,-40 15,-10 32,-18 50,-23 14,-4 35,-7 62,-10 57,-7 98,-15 125,-24 0,-10 0,-16 0,-18 0,-28 -7,-48 -20,-60 -18,-16 -45,-24 -80,-24 -33,0 -58,6 -73,17 -16,12 -27,32 -35,61l-69 -10c6,-29 16,-53 31,-71 14,-18 35,-32 62,-42 27,-10 58,-15 94,-15 35,0 64,4 86,12 22,8 38,19 49,31 10,13 18,29 22,48 2,12 3,33 3,64l0 93c0,65 1,106 4,123 3,17 9,34 17,50l-73 0c-7,-15 -12,-32 -14,-52zm-6 -155c-26,10 -64,19 -115,26 -29,4 -49,9 -61,14 -12,5 -21,13 -28,23 -7,10 -10,21 -10,33 0,18 7,34 21,46 14,12 35,19 62,19 27,0 51,-6 72,-18 21,-12 37,-28 46,-48 8,-16 11,-39 11,-70l0 -26zm371 45l68 -9c2,44 10,74 24,90 14,16 35,24 60,24 19,0 35,-4 49,-13 14,-9 23,-21 28,-35 5,-15 8,-39 8,-71l0 -393 76 0 0 389c0,48 -6,85 -17,111 -12,26 -30,46 -55,60 -25,14 -54,21 -88,21 -50,0 -88,-14 -115,-43 -27,-29 -39,-72 -38,-128zm698 110c-26,22 -51,38 -75,47 -24,9 -50,14 -77,14 -45,0 -80,-11 -105,-33 -24,-22 -37,-50 -37,-85 0,-20 5,-39 14,-55 9,-17 21,-30 36,-40 15,-10 32,-18 50,-23 14,-4 35,-7 62,-10 57,-7 98,-15 125,-24 0,-10 0,-16 0,-18 0,-28 -7,-48 -20,-60 -18,-16 -45,-24 -80,-24 -33,0 -58,6 -73,17 -16,12 -27,32 -35,61l-69 -10c6,-29 16,-53 31,-71 14,-18 35,-32 62,-42 27,-10 58,-15 94,-15 35,0 64,4 86,12 22,8 38,19 49,31 10,13 18,29 22,48 2,12 3,33 3,64l0 93c0,65 1,106 4,123 3,17 9,34 17,50l-73 0c-7,-15 -12,-32 -14,-52zm-6 -155c-26,10 -64,19 -115,26 -29,4 -49,9 -61,14 -12,5 -21,13 -28,23 -7,10 -10,21 -10,33 0,18 7,34 21,46 14,12 35,19 62,19 27,0 51,-6 72,-18 21,-12 37,-28 46,-48 8,-16 11,-39 11,-70l0 -26zm179 207l0 -414 63 0 0 58c13,-20 30,-37 52,-49 22,-12 46,-18 73,-18 31,0 56,6 75,19 20,13 33,30 41,53 33,-48 76,-72 128,-72 41,0 73,11 95,34 22,23 33,58 33,105l0 284 -70 0 0 -260c0,-28 -2,-48 -7,-60 -5,-12 -13,-22 -25,-30 -12,-8 -26,-11 -42,-11 -29,0 -53,10 -73,29 -19,19 -29,50 -29,93l0 240 -70 0 0 -268c0,-31 -6,-54 -17,-70 -11,-16 -30,-23 -56,-23 -20,0 -38,5 -55,16 -17,10 -29,26 -36,46 -7,20 -11,49 -11,86l0 214 -70 0zm664 -491l0 -80 70 0 0 80 -70 0zm0 491l0 -414 70 0 0 414 -70 0zm177 0l0 -414 63 0 0 59c30,-45 74,-67 131,-67 25,0 48,5 69,13 21,9 37,21 47,35 10,14 18,32 22,52 3,13 4,36 4,68l0 254 -70 0 0 -251c0,-29 -3,-50 -8,-64 -5,-14 -15,-25 -29,-34 -14,-8 -30,-13 -49,-13 -30,0 -55,9 -77,28 -22,19 -32,55 -32,108l0 226 -70 0zm713 -52c-26,22 -51,38 -75,47 -24,9 -50,14 -77,14 -45,0 -80,-11 -105,-33 -24,-22 -37,-50 -37,-85 0,-20 5,-39 14,-55 9,-17 21,-30 36,-40 15,-10 32,-18 50,-23 14,-4 35,-7 62,-10 57,-7 98,-15 125,-24 0,-10 0,-16 0,-18 0,-28 -7,-48 -20,-60 -18,-16 -45,-24 -80,-24 -33,0 -58,6 -73,17 -16,12 -27,32 -35,61l-69 -10c6,-29 16,-53 31,-71 14,-18 35,-32 62,-42 27,-10 58,-15 94,-15 35,0 64,4 86,12 22,8 38,19 49,31 10,13 18,29 22,48 2,12 3,33 3,64l0 93c0,65 1,106 4,123 3,17 9,34 17,50l-73 0c-7,-15 -12,-32 -14,-52zm-6 -155c-26,10 -64,19 -115,26 -29,4 -49,9 -61,14 -12,5 -21,13 -28,23 -7,10 -10,21 -10,33 0,18 7,34 21,46 14,12 35,19 62,19 27,0 51,-6 72,-18 21,-12 37,-28 46,-48 8,-16 11,-39 11,-70l0 -26zm179 207l0 -414 63 0 0 59c30,-45 74,-67 131,-67 25,0 48,5 69,13 21,9 37,21 47,35 10,14 18,32 22,52 3,13 4,36 4,68l0 254 -70 0 0 -251c0,-29 -3,-50 -8,-64 -5,-14 -15,-25 -29,-34 -14,-8 -30,-13 -49,-13 -30,0 -55,9 -77,28 -22,19 -32,55 -32,108l0 226 -70 0zm649 -183l71 -6c3,29 11,52 24,71 12,18 31,33 57,45 26,11 55,17 88,17 29,0 54,-4 76,-13 22,-9 38,-20 49,-35 11,-15 16,-31 16,-49 0,-18 -5,-33 -16,-47 -10,-13 -28,-24 -51,-34 -15,-6 -49,-15 -102,-28 -52,-13 -89,-24 -110,-36 -27,-14 -47,-32 -61,-53 -13,-21 -20,-45 -20,-71 0,-29 8,-56 25,-81 16,-25 40,-44 72,-57 31,-13 66,-20 105,-20 42,0 80,7 112,20 32,14 57,34 75,60 17,26 27,56 28,90l-73 6c-4,-36 -17,-63 -39,-82 -22,-18 -56,-28 -99,-28 -46,0 -79,8 -100,25 -21,17 -31,37 -31,61 0,20 7,37 22,51 15,13 52,27 114,41 61,14 103,26 126,36 33,15 58,35 73,58 16,23 24,50 24,81 0,30 -9,59 -26,86 -17,27 -42,48 -75,63 -33,15 -69,22 -110,22 -52,0 -95,-8 -130,-23 -35,-15 -62,-38 -82,-68 -20,-30 -30,-64 -31,-102z"/>
  <path class="fil2" d="M14667 10698c0,-76 21,-133 64,-170 35,-31 79,-46 130,-46 57,0 103,19 139,56 36,37 54,88 54,154 0,53 -8,95 -24,125 -16,30 -39,54 -70,71 -30,17 -64,25 -100,25 -58,0 -105,-18 -140,-56 -36,-37 -54,-90 -54,-160zm72 0c0,53 12,92 35,119 23,26 52,39 88,39 35,0 64,-13 87,-40 23,-26 35,-67 35,-121 0,-51 -12,-90 -35,-116 -23,-26 -52,-39 -87,-39 -35,0 -64,13 -88,39 -23,26 -35,66 -35,118zm370 83l69 -11c4,28 15,49 33,64 18,15 43,22 75,22 32,0 56,-7 72,-20 16,-13 23,-28 23,-46 0,-16 -7,-28 -21,-37 -10,-6 -34,-14 -72,-24 -51,-13 -87,-24 -107,-33 -20,-10 -35,-23 -45,-39 -10,-17 -15,-35 -15,-55 0,-18 4,-35 13,-51 9,-16 20,-29 34,-39 11,-8 26,-15 44,-20 19,-6 39,-8 60,-8 32,0 61,5 85,14 25,9 43,22 54,38 12,16 20,37 24,64l-69 10c-3,-22 -12,-38 -27,-50 -15,-12 -36,-18 -63,-18 -32,0 -55,5 -69,16 -14,11 -21,23 -21,37 0,9 3,17 8,25 6,7 15,14 27,19 7,3 28,9 62,18 49,13 84,24 104,32 20,8 35,21 46,37 11,16 17,36 17,60 0,23 -7,45 -20,66 -14,21 -33,37 -59,48 -26,11 -55,17 -87,17 -54,0 -95,-11 -123,-33 -28,-22 -46,-55 -54,-99zm426 -367l0 -80 70 0 0 80 -70 0zm0 491l0 -414 70 0 0 414 -70 0zm447 -52c-26,22 -51,38 -75,47 -24,9 -50,14 -77,14 -45,0 -80,-11 -105,-33 -24,-22 -37,-50 -37,-85 0,-20 5,-39 14,-55 9,-17 21,-30 36,-40 15,-10 32,-18 50,-23 14,-4 35,-7 62,-10 57,-7 98,-15 125,-24 0,-10 0,-16 0,-18 0,-28 -7,-48 -20,-60 -18,-16 -45,-24 -80,-24 -33,0 -58,6 -73,17 -16,12 -27,32 -35,61l-69 -10c6,-29 16,-53 31,-71 14,-18 35,-32 62,-42 27,-10 58,-15 94,-15 35,0 64,4 86,12 22,8 38,19 49,31 10,13 18,29 22,48 2,12 3,33 3,64l0 93c0,65 1,106 4,123 3,17 9,34 17,50l-73 0c-7,-15 -12,-32 -14,-52zm-6 -155c-26,10 -64,19 -115,26 -29,4 -49,9 -61,14 -12,5 -21,13 -28,23 -7,10 -10,21 -10,33 0,18 7,34 21,46 14,12 35,19 62,19 27,0 51,-6 72,-18 21,-12 37,-28 46,-48 8,-16 11,-39 11,-70l0 -26zm177 207l0 -571 70 0 0 571 -70 0z"/>

 </g>
</svg>
