<?xml version="1.0" encoding="iso-8859-1"?>
<!-- Uploaded to: SVG Repo, www.svgrepo.com, Generator: SVG Repo Mixer Tools -->
<!DOCTYPE svg PUBLIC "-//W3C//DTD SVG 1.1//EN" "http://www.w3.org/Graphics/SVG/1.1/DTD/svg11.dtd">
<svg fill="#000000" version="1.1" id="Capa_1" xmlns="http://www.w3.org/2000/svg" xmlns:xlink="http://www.w3.org/1999/xlink" 
	 width="800px" height="800px" viewBox="0 0 98.786 98.786"
	 xml:space="preserve">
<g>
	<g>
		<path d="M96.673,12.766c1.164,0,2.113-0.947,2.113-2.111h-0.722c0,0.768-0.623,1.393-1.393,1.393h-7.431V9.186h-2.156v2.861H81.69
			c-0.166-0.466-0.451-0.748-0.807-0.748c-0.354,0-0.643,0.282-0.807,0.748h-0.479c-0.767,0-1.392-0.625-1.392-1.393h-0.72
			c0,1.164,0.947,2.111,2.11,2.111h0.338c-0.006,0.093-0.015,0.187-0.015,0.285c0,0.134,0.009,0.262,0.021,0.384h-1.274
			c-0.893,0-1.614,0.726-1.614,1.617v7.776c0,0.893,0.723,1.616,1.614,1.616h0.479v2.206h0.171
			c-0.279,6.772-3.076,9.689-10.258,10.716c-1.083,0.161-2.466,0.137-3.931,0.115c-2.767-0.044-5.906-0.094-7.877,1.139
			c-1.679,1.048-2.186,2.602-2.673,4.104c-0.402,1.232-0.781,2.397-1.789,3.306c-0.545,0.507-1.159,0.847-1.824,1.085
			c-12.313-1.354-12.32-1.354-12.32-1.354v0.877c-8.062,1.543-12.11-2.202-12.323-2.408c-1.068-1.064-2.798-1.075-3.874-0.017
			c-1.088,1.065-1.103,2.811-0.038,3.896c0.211,0.216,4.449,4.422,12.491,4.422c1.166,0,2.418-0.095,3.744-0.297v1.245
			c-1.273,0.19-2.532,0.296-3.758,0.296c-8.139,0-12.466-4.156-12.933-4.631c-0.421-0.43-0.713-0.946-0.892-1.503
			c-0.019-0.052-0.031-0.105-0.047-0.16c-0.044-0.157-0.08-0.315-0.102-0.479c-0.006-0.041-0.022-0.079-0.026-0.121
			c-0.009-0.07,0-0.141-0.003-0.21c-0.004-0.078-0.022-0.152-0.021-0.231c0-0.046,0.013-0.091,0.016-0.137
			c0.006-0.125,0.021-0.246,0.039-0.368c0.019-0.131,0.038-0.259,0.07-0.386c0.019-0.07,0.043-0.14,0.065-0.21
			c0.186-0.591,0.497-1.137,0.951-1.582c0.717-0.702,1.663-1.09,2.668-1.09c1.015,0,1.971,0.396,2.689,1.113
			c0.088,0.084,2.523,2.379,7.505,2.379c0.122,0,0.248-0.008,0.372-0.012c-4.335-1.47-8.893-3.931-8.893-3.931
			c-2.07-1.336-4.631-0.414-6.135,1.009c0,0-0.502,0.429-0.855,1.003c-0.336,0.549-0.601,1.235-0.601,1.235l-0.008,0.016
			c-0.5,1.445-0.512,3.287,0.34,4.695c0,0,0.576,0.85,1.275,1.319c0,0,9.863,6.797,16.078,7.004
			c0.755,0.025,1.485,0.035,2.203,0.037v1.236h-5.333L13.641,49.301c0.275-0.104,0.519-0.295,0.664-0.575
			c0.312-0.603,0.078-1.344-0.522-1.656l-6.768-3.516c-0.603-0.313-1.343-0.078-1.656,0.524c-0.126,0.244-0.144,0.508-0.103,0.76
			l-0.874-0.466c-1.493-0.749-3.311-0.146-4.06,1.347c-0.749,1.493-0.146,3.31,1.347,4.059l26.999,14.432H8.979
			c-1.002,0-1.815,0.813-1.815,1.814v1.008c0,1.002,0.813,1.814,1.815,1.814h6.38c-0.015,0.133-0.024,0.268-0.024,0.402v15.5
			c-0.625,0.5-1.033,1.261-1.033,2.123c0,1.506,1.222,2.729,2.729,2.729c1.508,0,2.729-1.223,2.729-2.729
			c0-0.752-0.305-1.432-0.795-1.924v-3.402h54.833v3.18c-0.641,0.499-1.062,1.271-1.062,2.146c0,1.506,1.221,2.729,2.729,2.729
			c1.507,0,2.729-1.223,2.729-2.729c0-0.734-0.294-1.398-0.766-1.89V69.249c0-1.928-1.511-3.504-3.411-3.617
			c1.162-0.422,1.999-1.525,1.999-2.833c0-1.616-1.271-2.925-2.865-3.009c0.691-3.799-0.308-10.27-14.334-11.812
			c-2.294-0.252-4.312-0.475-6.113-0.673c0.253-0.17,0.499-0.357,0.731-0.576c1.191-1.072,1.628-2.413,2.05-3.711
			c0.458-1.403,0.891-2.729,2.273-3.595c1.734-1.084,4.727-1.033,7.36-0.994c1.505,0.023,2.925,0.047,4.081-0.124
			c7.665-1.096,10.74-4.373,11.03-11.655h0.148v-2.206h1.046v0.974h1.227v-0.974h0.448c0.894,0,1.616-0.724,1.616-1.616v-7.776
			c0-0.892-0.724-1.617-1.616-1.617h-1.271c0.014-0.122,0.021-0.25,0.021-0.384c0-0.099-0.009-0.192-0.017-0.285h5.254l-0.01,69.314
			h-1.291c-2.291,0-4.249,1.43-5.049,3.438c-0.855,0.261-1.483,1.048-1.483,1.99c0,1.153,0.936,2.09,2.088,2.09
			c1.155,0,2.091-0.937,2.091-2.09c0-0.556-0.22-1.056-0.569-1.429c0.531-1.084,1.636-1.838,2.924-1.838h4.865
			c1.287,0,2.393,0.754,2.924,1.838c-0.352,0.373-0.569,0.873-0.569,1.429c0,1.153,0.935,2.09,2.089,2.09s2.089-0.937,2.089-2.09
			c0-0.942-0.627-1.729-1.483-1.99c-0.799-2.01-2.758-3.438-5.048-3.438H89.24l0.004-69.314H96.673z M73.797,69.249v9.877H18.964
			v-9.877H73.797z M80.665,12.766h0.441c0.008,0.091,0.021,0.178,0.021,0.285c0,0.142-0.011,0.27-0.027,0.384h-0.43
			c-0.016-0.114-0.027-0.242-0.027-0.384C80.643,12.944,80.657,12.857,80.665,12.766z M82.561,19.242c0,0.938-0.761,1.7-1.699,1.7
			c-0.938,0-1.698-0.762-1.698-1.7s1.698-3.598,1.698-3.598S82.561,18.304,82.561,19.242z"/>
		<circle cx="14.335" cy="40.03" r="6.014"/>
	</g>
</g>
</svg>